<svg xmlns="http://www.w3.org/2000/svg" width="280" height="123" viewBox="0 0 280 123"><path fill="none" d="M140 19.2q-8.4 0-12.5 6.5T123.4 46V75q0 14.6 3.9 21.8t12.8 7q8.7 0 12.5-6.8t4-20.8V47.7q0-14.9-4-21.6t-12.7-6.9zM216.4 76.3h26.4V34l-1.6 2.8-24.8 39.5zM23.6 76.3H50V34l-1.6 2.8-24.8 39.5z"/><path fill="#fff" d="M73.7 1.6h-24L0 80.5l1 15h49v25.9h23.7v-26h13.5V76.4H73.7zM50 76.3H23.6l24.8-39.5L50 34zM140 0q-19.6 0-30 13T99.7 51v22q.2 24.2 10.5 37t29.9 13q19.7 0 30-13.2t10.2-38v-22q-.2-24-10.5-36.9T139.9 0zm16.6 76.1q-.1 14.1-4 21t-12.5 6.7q-8.8 0-12.8-7t-4-21.8V45.9q.3-13.7 4.2-20.2t12.4-6.5q8.6 0 12.6 6.9t4.1 21.6zM266.5 76.3V1.6h-24l-49.7 78.9 1 15h49v25.9h23.7v-26H280V76.4zm-23.7 0h-26.4l24.8-39.5 1.6-2.8z"/></svg>