<svg xmlns="http://www.w3.org/2000/svg" xmlns:xlink="http://www.w3.org/1999/xlink" style="display:none"><symbol id="facebook-icon"><path d="M30 2a6.7 6.7 0 0 0-4.7-2H6.7A6.7 6.7 0 0 0 0 6.7v18.6A6.7 6.7 0 0 0 6.7 32h18.6a6.7 6.7 0 0 0 6.7-6.7V6.7A6.7 6.7 0 0 0 30 2zm-.7 23.4a4 4 0 0 1-4 4h-10V18h3.2l.5-4.4h-3.7v-3a1.2 1.2 0 0 1 1-1H19V5h-3.6c-5.1 0-5 4.4-5 5v3.6H8V18h2.4v11.3H6.7a4 4 0 0 1-4-4V6.7a4 4 0 0 1 4-4h18.6a4 4 0 0 1 4 4z"/></symbol><symbol id="instagram-icon"><path d="M30 2a6.7 6.7 0 0 0-4.7-2H6.7A6.7 6.7 0 0 0 0 6.7v18.6A6.7 6.7 0 0 0 6.7 32h18.6a6.7 6.7 0 0 0 6.7-6.7V6.7A6.7 6.7 0 0 0 30 2zm-.7 23.4a4 4 0 0 1-4 4H6.7a4 4 0 0 1-4-4V6.7a4 4 0 0 1 4-4h18.6a4 4 0 0 1 4 4z"/><path d="M16 9.3a6.7 6.7 0 1 0 6.7 6.7A6.7 6.7 0 0 0 16 9.3zM16 20a3.7 3.7 0 0 1-4-4 3.7 3.7 0 0 1 4-4 3.7 3.7 0 0 1 4 4 3.7 3.7 0 0 1-4 4z"/><circle cx="24.7" cy="7.3" r="2"/></symbol><symbol id="slider-next-icon"><path fill="#030303" d="M10 10L3 20H0l7-10L0 0h3z"/></symbol></svg>