<svg xmlns="http://www.w3.org/2000/svg" xmlns:xlink="http://www.w3.org/1999/xlink" style="display:none"><symbol id="facebook-icon"><path d="M30 2a6.7 6.7 0 0 0-4.7-2H6.7A6.7 6.7 0 0 0 0 6.7v18.6A6.7 6.7 0 0 0 6.7 32h18.6a6.7 6.7 0 0 0 6.7-6.7V6.7A6.7 6.7 0 0 0 30 2zm-.7 23.4a4 4 0 0 1-4 4h-10V18h3.2l.5-4.4h-3.7v-3a1.2 1.2 0 0 1 1-1H19V5h-3.6c-5.1 0-5 4.4-5 5v3.6H8V18h2.4v11.3H6.7a4 4 0 0 1-4-4V6.7a4 4 0 0 1 4-4h18.6a4 4 0 0 1 4 4z"/></symbol><symbol id="instagram-icon"><path d="M30 2a6.7 6.7 0 0 0-4.7-2H6.7A6.7 6.7 0 0 0 0 6.7v18.6A6.7 6.7 0 0 0 6.7 32h18.6a6.7 6.7 0 0 0 6.7-6.7V6.7A6.7 6.7 0 0 0 30 2zm-.7 23.4a4 4 0 0 1-4 4H6.7a4 4 0 0 1-4-4V6.7a4 4 0 0 1 4-4h18.6a4 4 0 0 1 4 4z"/><path d="M16 9.3a6.7 6.7 0 1 0 6.7 6.7A6.7 6.7 0 0 0 16 9.3zM16 20a3.7 3.7 0 0 1-4-4 3.7 3.7 0 0 1 4-4 3.7 3.7 0 0 1 4 4 3.7 3.7 0 0 1-4 4z"/><circle cx="24.7" cy="7.3" r="2"/></symbol><symbol id="slider-next-icon"><path fill="#030303" d="M10 10L3 20H0l7-10L0 0h3z"/></symbol><symbol id="telegr-icon"><path d="M24.41 1.59A5.42 5.42 0 0 0 20.58 0H5.42A5.42 5.42 0 0 0 0 5.42v15.16A5.42 5.42 0 0 0 5.42 26h15.16A5.42 5.42 0 0 0 26 20.58V5.42a5.42 5.42 0 0 0-1.59-3.83zm-.58 19a3.25 3.25 0 0 1-3.25 3.25H5.42a3.25 3.25 0 0 1-3.25-3.25V5.42a3.25 3.25 0 0 1 3.25-3.25h15.16a3.25 3.25 0 0 1 3.25 3.25z"/><path d="M19.09 5.82l.08-.08c-4.41 1.77-8.83 3.76-13.24 5.61a1.38 1.38 0 0 0 0 2.69c.46.23 2.21.92 3 1.23.23.77.84 2.61 1 3.07.3.84 1.07 1.69 2 1l1.9-1.61 2.36 2.15a1.59 1.59 0 0 0 2.66-.77C19 18 21.07 7.51 21.07 7.51a1.39 1.39 0 0 0-1.98-1.69zm-2 12.91l-3.35-3.15-2.25 1.92.6-2.5c.53-.54 4.87-4.84 4.87-5.07a.16.16 0 0 0-.15-.15c-.15 0-6.54 3.76-7.15 4.15-.91-.38-1.9-.77-2.82-1.15l12.48-5.31c-.32 1.61-1.98 10.11-2.2 11.26z"/></symbol><symbol id="viber-icon"><path d="M24.41 1.59A5.42 5.42 0 0 0 20.58 0H5.42A5.42 5.42 0 0 0 0 5.42v15.16A5.42 5.42 0 0 0 5.42 26h15.16A5.42 5.42 0 0 0 26 20.58V5.42a5.42 5.42 0 0 0-1.59-3.83zm-.58 19a3.25 3.25 0 0 1-3.25 3.25H5.42a3.25 3.25 0 0 1-3.25-3.25V5.42a3.25 3.25 0 0 1 3.25-3.25h15.16a3.25 3.25 0 0 1 3.25 3.25z"/><path d="M16.85 14.83a1.52 1.52 0 0 0-1.34.87 1.53 1.53 0 0 1-2.14.49 7.05 7.05 0 0 1-2.15-1.44 7 7 0 0 1-1.44-2.15 1.52 1.52 0 0 1 .49-2.14 1.52 1.52 0 0 0 .87-1.34c0-.88-2.17-3.8-3-4.11a1.53 1.53 0 0 0-1 0 3 3 0 0 0-2 4.2 21.17 21.17 0 0 0 4.58 7.09 21.17 21.17 0 0 0 7.09 4.58 3 3 0 0 0 4.2-2 1.53 1.53 0 0 0 0-1c-.36-.88-3.29-3-4.16-3.05zM19.2 6.88a7 7 0 0 0-4.33-2 6.53 6.53 0 0 0-1.58.05.56.56 0 1 0 .18 1.07 5.38 5.38 0 0 1 1.31 0 5.87 5.87 0 0 1 3.62 1.67 5.64 5.64 0 0 1 1.66 3.48 5.1 5.1 0 0 1-.06 1.32.56.56 0 0 0 .46.65h.1a.56.56 0 0 0 .55-.47 6.22 6.22 0 0 0 .07-1.6 6.77 6.77 0 0 0-1.98-4.17z"/><path d="M18.67 12.63h.07a.56.56 0 0 0 .56-.49 4.37 4.37 0 0 0 0-.92 4.89 4.89 0 0 0-1.44-3 5.12 5.12 0 0 0-3.16-1.49 4.67 4.67 0 0 0-1 0 .56.56 0 1 0 .14 1.12 3.54 3.54 0 0 1 .75 0A4 4 0 0 1 17.08 9a3.77 3.77 0 0 1 1.11 2.32 3.24 3.24 0 0 1 0 .69.56.56 0 0 0 .48.62z"/><path d="M14.55 8.58h-.36a.56.56 0 1 0 0 1.12h.22a2.11 2.11 0 0 1 1.87 1.78 1.43 1.43 0 0 1 0 .22.56.56 0 0 0 .52.6.56.56 0 0 0 .56-.52 2.52 2.52 0 0 0 0-.39 3.21 3.21 0 0 0-2.81-2.81z"/></symbol></svg>