<svg xmlns="http://www.w3.org/2000/svg" width="26" height="26" viewBox="0 0 26 26"><title>telegr-icon</title><path d="M24.41,1.59A5.42,5.42,0,0,0,20.58,0H5.42A5.42,5.42,0,0,0,0,5.42V20.58A5.42,5.42,0,0,0,5.42,26H20.58A5.42,5.42,0,0,0,26,20.58V5.42A5.42,5.42,0,0,0,24.41,1.59Zm-.58,19a3.25,3.25,0,0,1-3.25,3.25H5.42a3.25,3.25,0,0,1-3.25-3.25V5.42A3.25,3.25,0,0,1,5.42,2.17H20.58a3.25,3.25,0,0,1,3.25,3.25Z"/><path d="M19.09,5.82l.08-.08c-4.41,1.77-8.83,3.76-13.24,5.61a1.38,1.38,0,0,0,0,2.69c.46.23,2.21.92,3,1.23.23.77.84,2.61,1,3.07.3.84,1.07,1.69,2,1l1.9-1.61,2.36,2.15a1.59,1.59,0,0,0,2.66-.77C19,18,21.07,7.51,21.07,7.51A1.39,1.39,0,0,0,19.09,5.82Zm-2,12.91-3.35-3.15L11.49,17.5,12.09,15c.53-.54,4.87-4.84,4.87-5.07a.16.16,0,0,0-.15-.15c-.15,0-6.54,3.76-7.15,4.15-.91-.38-1.9-.77-2.82-1.15L19.32,7.47C19,9.08,17.34,17.58,17.12,18.73Z"/></svg>