<svg xmlns="http://www.w3.org/2000/svg" width="26" height="26" viewBox="0 0 26 26"><title>viber-icon</title><path d="M24.41,1.59A5.42,5.42,0,0,0,20.58,0H5.42A5.42,5.42,0,0,0,0,5.42V20.58A5.42,5.42,0,0,0,5.42,26H20.58A5.42,5.42,0,0,0,26,20.58V5.42A5.42,5.42,0,0,0,24.41,1.59Zm-.58,19a3.25,3.25,0,0,1-3.25,3.25H5.42a3.25,3.25,0,0,1-3.25-3.25V5.42A3.25,3.25,0,0,1,5.42,2.17H20.58a3.25,3.25,0,0,1,3.25,3.25Z"/><path d="M16.85,14.83a1.52,1.52,0,0,0-1.34.87,1.53,1.53,0,0,1-2.14.49,7.05,7.05,0,0,1-2.15-1.44,7,7,0,0,1-1.44-2.15,1.52,1.52,0,0,1,.49-2.14,1.52,1.52,0,0,0,.87-1.34c0-.88-2.17-3.8-3-4.11a1.53,1.53,0,0,0-1,0,3,3,0,0,0-2,4.2,21.17,21.17,0,0,0,4.58,7.09,21.17,21.17,0,0,0,7.09,4.58,3,3,0,0,0,4.2-2,1.53,1.53,0,0,0,0-1C20.65,17,17.72,14.88,16.85,14.83Z"/><path d="M19.2,6.88a7,7,0,0,0-4.33-2,6.53,6.53,0,0,0-1.58.05A.56.56,0,1,0,13.47,6a5.38,5.38,0,0,1,1.31,0A5.87,5.87,0,0,1,18.4,7.67a5.64,5.64,0,0,1,1.66,3.48A5.1,5.1,0,0,1,20,12.47a.56.56,0,0,0,.46.65h.1a.56.56,0,0,0,.55-.47,6.22,6.22,0,0,0,.07-1.6A6.77,6.77,0,0,0,19.2,6.88Z"/><path d="M18.67,12.63h.07a.56.56,0,0,0,.56-.49,4.37,4.37,0,0,0,0-.92,4.89,4.89,0,0,0-1.44-3,5.12,5.12,0,0,0-3.16-1.49,4.67,4.67,0,0,0-1,0,.56.56,0,1,0,.14,1.12,3.54,3.54,0,0,1,.75,0A4,4,0,0,1,17.08,9a3.77,3.77,0,0,1,1.11,2.32,3.24,3.24,0,0,1,0,.69A.56.56,0,0,0,18.67,12.63Z"/><path d="M14.55,8.58h-.36a.56.56,0,1,0,0,1.12h.22a2.11,2.11,0,0,1,1.87,1.78,1.43,1.43,0,0,1,0,.22.56.56,0,0,0,.52.6h0a.56.56,0,0,0,.56-.52,2.52,2.52,0,0,0,0-.39A3.21,3.21,0,0,0,14.55,8.58Z"/></svg>