<svg xmlns="http://www.w3.org/2000/svg" width="130" height="130" viewBox="0 0 130 130"><path fill="none" d="M56.7 41.3a3.5 3.5 0 1 0 1.6 1.2 3.5 3.5 0 0 0-1.6-1.3zM58.2 50.5a2.2 2.2 0 0 0-.8-.7 1.9 1.9 0 0 0-1-.2h-4.3a.7.7 0 0 0-.5.2 1 1 0 0 0-.3.7v2a1 1 0 0 0 .3.6.7.7 0 0 0 .5.2.7.7 0 0 1 .4.1.8.8 0 0 1 .2.3 1 1 0 0 1 .2.4 1.1 1.1 0 0 1 0 .4l-2 9.2a3 3 0 0 0 0 1 2.7 2.7 0 0 0 .4 1 2.2 2.2 0 0 0 .7.8 1.9 1.9 0 0 0 1 .2h4.3a.7.7 0 0 0 .6-.2 1 1 0 0 0 .2-.7V64a1 1 0 0 0-.2-.7.7.7 0 0 0-.6-.2.7.7 0 0 1-.3-.1.8.8 0 0 1-.3-.3 1 1 0 0 1-.2-.4 1.1 1.1 0 0 1 0-.4l2-9.1a3 3 0 0 0 0-1.2 2.7 2.7 0 0 0-.3-1z"/><path d="M57.7 42.2a3.5 3.5 0 1 0 1 4.8 3.5 3.5 0 0 0-1-4.8zM58.5 51.2a2.2 2.2 0 0 0-.8-.8 1.9 1.9 0 0 0-1-.2h-4.3a.7.7 0 0 0-.5.3 1 1 0 0 0-.3.6v2a1 1 0 0 0 .3.6.7.7 0 0 0 .5.3.7.7 0 0 1 .4.1.8.8 0 0 1 .3.3 1 1 0 0 1 .1.3 1.1 1.1 0 0 1 0 .5l-2 9.1a3 3 0 0 0 0 1.1 2.7 2.7 0 0 0 .4 1 2.2 2.2 0 0 0 .8.7 1.9 1.9 0 0 0 .9.3h4.4a.7.7 0 0 0 .5-.3 1 1 0 0 0 .3-.7v-1.8a1 1 0 0 0-.3-.7.7.7 0 0 0-.5-.3.7.7 0 0 1-.4 0 .8.8 0 0 1-.2-.3 1 1 0 0 1-.2-.4 1.1 1.1 0 0 1 0-.4l2-9.2a3 3 0 0 0 0-1.2 2.7 2.7 0 0 0-.4-1z"/><path d="M65 0a65 65 0 1 0 65 65A65 65 0 0 0 65 0zm32.5 96.5a1 1 0 0 1-1 1H86.3a1.4 1.4 0 0 1-1-.5l-2.5-2.5a1.7 1.7 0 0 1-.5-1.2V88a.6.6 0 0 0-.7-.7h-4.8a2.2 2.2 0 0 1-2.2-2.2v-4.8a.6.6 0 0 0-.6-.6h-5.5a1.7 1.7 0 0 1-1.1-.5L63 74.8a22 22 0 1 1 11.7-11.7L97 85.3a1.4 1.4 0 0 1 .5 1z"/></svg>